<?xml version="1.0" encoding="utf-8"?>
<!-- Generator: Adobe Illustrator 18.0.0, SVG Export Plug-In . SVG Version: 6.00 Build 0)  -->
<!DOCTYPE svg PUBLIC "-//W3C//DTD SVG 1.1//EN" "http://www.w3.org/Graphics/SVG/1.1/DTD/svg11.dtd">
<svg version="1.1" id="Layer_1" xmlns="http://www.w3.org/2000/svg" xmlns:xlink="http://www.w3.org/1999/xlink" x="0px" y="0px"
	 viewBox="1044 0 1024 768" enable-background="new 1044 0 1024 768" xml:space="preserve">
<g id="v18FnA_1_">
	<g>
		<g>
			<path fill="#FFFFFF" d="M1592.2,95c90.6,0,181.2,0,271.8,0c0,201.3,0,402.7,0,604c-201.3,0-402.7,0-604,0c0-201.3,0-402.7,0-604
				c96.6,0,193.3,0,289.9,0c-17.7,3.3-35.7,5.2-52.9,10.2c-63.5,18.5-104.3,61.6-128.5,121.8c-11.9,29.6-14.2,61.2-17.9,92.4
				c-0.6,5.5-1.9,8.6-7.1,11.6c-4.9,2.9-10.3,8.7-11.1,13.9c-5.3,34.3-1.1,68.2,8,101.3c1.8,6.7,9.6,14.8,16,16.4
				c9.3,2.3,10.5,7.6,12,14.4c6.4,27.8,14.8,55,29.8,79.6c17.2,28.3,34.3,56.7,53,84c23,33.5,55.8,51.7,96.4,56.6
				c42.1,5.1,78.1-8,108.4-36.4c10.8-10.2,20.1-22.6,27.9-35.4c19.3-31.6,38.7-63.4,55.5-96.4c8.7-17,11.9-36.7,17.9-55.1
				c1.2-3.7,3.8-9,6.7-9.7c13.9-3.5,21-12.7,23-25.8c3.3-22.5,6.3-45.1,8.2-67.7c0.8-9.1-1.3-18.7-3.2-27.8c-0.8-3.8-3.9-9.1-7-10.1
				c-9.3-3-10.6-9.7-11.3-17.6c-0.5-6-1.3-12-2-18c-4-34.5-10.8-68-28.5-98.6c-20.4-35.4-47.2-64.6-84.7-81.5
				C1637.3,107.7,1614.3,102.3,1592.2,95z"/>
			<path d="M1592.2,95c22.1,7.2,45.1,12.6,66.2,22.1c37.6,16.8,64.3,46,84.7,81.5c17.7,30.6,24.5,64.2,28.5,98.6c0.7,6,1.5,12,2,18
				c0.7,7.8,2,14.6,11.3,17.6c3.2,1,6.2,6.3,7,10.1c1.9,9.1,3.9,18.7,3.2,27.8c-1.9,22.6-4.9,45.2-8.2,67.7
				c-1.9,13.1-9.1,22.3-23,25.8c-2.9,0.7-5.5,6-6.7,9.7c-6.1,18.3-9.3,38.1-17.9,55.1c-16.8,33-36.2,64.8-55.5,96.4
				c-7.8,12.7-17,25.2-27.9,35.4c-30.3,28.4-66.3,41.5-108.4,36.4c-40.6-4.9-73.4-23.1-96.4-56.6c-18.7-27.3-35.8-55.7-53-84
				c-14.9-24.6-23.4-51.7-29.8-79.6c-1.6-6.8-2.7-12.2-12-14.4c-6.4-1.6-14.2-9.7-16-16.4c-9.1-33.1-13.3-67-8-101.3
				c0.8-5.2,6.3-11,11.1-13.9c5.2-3.1,6.5-6.2,7.1-11.6c3.7-31.2,6-62.8,17.9-92.4c24.1-60.2,65-103.3,128.5-121.8
				c17.2-5,35.2-6.9,52.9-10.2C1564,95,1578.1,95,1592.2,95z M1365.4,349.1c-1.4-0.7-2.8-1.5-4.2-2.2c-4.6-2.1-9.2-4.1-13.8-6.2
				c-1.7,4.5-5.1,9.1-4.9,13.5c1.4,27.3,2.7,54.7,6.1,81.8c2.2,17.3,10.8,20.2,25.9,11.5c0.4-0.2,1.2,0.3,2.1,0.6
				c-0.6,4.7-2.7,9.8-1.7,14.2c7.6,32.4,18.9,63.7,35.2,92.7c13.9,24.8,29.8,48.6,45.4,72.4c23.4,35.6,55.9,55.2,99.2,57.7
				c48.2,2.8,85.6-15.6,112.8-54.7c24.7-35.5,49-71.3,64.5-112.1c8.6-22.7,19.6-44.9,17-71c1.3,0.4,2.9,0.6,4.1,1.4
				c10.6,6.5,19.5,4.2,22.3-7.7c7-29.8,10.5-60.1,6.7-90.7c-1.4-11.6-7.3-13.2-16.5-5.7c-2,1.7-4.2,3.2-6.3,4.8
				c0.2-6.5,4.4-11.5,3.9-16.1c-3.9-35.2-5.1-70.9-18.8-104.5c-26.8-65.6-74.3-106.5-143.8-119.7c-19.4-3.7-40.1-2-60.1-0.9
				c-51.9,2.9-95,25-127.5,65.2c-12.9,15.9-23.5,34.5-31.1,53.5c-7.8,19.3-12.6,40.4-15,61.1C1364.7,307.8,1354.9,328,1365.4,349.1z
				"/>
			<path fill="#FFFFFF" d="M1365.4,349.1c-10.5-21.1-0.7-41.2,1.5-60.9c2.4-20.7,7.2-41.8,15-61.1c7.6-19,18.3-37.6,31.1-53.5
				c32.5-40.2,75.6-62.3,127.5-65.2c20-1.1,40.7-2.8,60.1,0.9c69.5,13.2,117,54.1,143.8,119.7c13.7,33.6,14.9,69.2,18.8,104.5
				c0.5,4.6-3.6,9.6-3.9,16.1c2.1-1.6,4.2-3.1,6.3-4.8c9.2-7.5,15-5.8,16.5,5.7c3.8,30.6,0.3,60.9-6.7,90.7
				c-2.8,11.9-11.7,14.2-22.3,7.7c-1.3-0.8-2.9-1-4.1-1.4c2.6,26-8.4,48.3-17,71c-15.5,40.8-39.8,76.6-64.5,112.1
				c-27.3,39.1-64.6,57.5-112.8,54.7c-43.2-2.5-75.8-22.1-99.2-57.7c-15.6-23.8-31.5-47.6-45.4-72.4c-16.3-29-27.6-60.3-35.2-92.7
				c-1-4.4,1-9.5,1.7-14.2c-0.9-0.3-1.7-0.8-2.1-0.6c-15,8.7-23.7,5.8-25.9-11.5c-3.4-27.1-4.6-54.5-6.1-81.8
				c-0.2-4.4,3.2-9,4.9-13.5c4.6,2.1,9.2,4.1,13.8,6.2C1362.6,347.6,1364,348.3,1365.4,349.1z M1354.7,421c0.8,0,1.6,0,2.5,0
				c-1.1-6.8-1.6-13.7-3.5-20.3c-3.3-11.3-7.6-22.3-3.3-34.2c2.3-6.3,9.2-8.3,13.1-3.8c5.2,6,5.4,18.8,1.5,25.8
				c-1.8,3.2-2.7,7.7-2.1,11.3c1.7,9.2,4.6,18.2,7,27.4c5.7-8.4,2-17.4-0.8-26.4c-0.8-2.5-1.7-6.2-0.6-8c5-8,5.6-24.4-0.5-31.7
				c-2.5-3-7.5-6.4-10.5-5.7c-4,0.9-9.8,5.4-10.1,8.8c-1.1,10.7-0.7,21.8,0.6,32.5C1349.1,404.9,1352.4,412.9,1354.7,421z
				 M1767.8,421.3c0.8-0.2,1.6-0.3,2.4-0.5c2-7.5,5-14.9,5.8-22.6c1.3-11.7,2.2-23.8,1-35.4c-0.8-7.5-9.6-10.1-15.7-6.5
				c-6.2,3.6-14.1,29-8.9,32.7c7.9,5.7,3.4,10.3,1.9,16.1c-2.1,7.6-4.2,15.6,0.5,22.1c2.4-9.2,4.9-17.8,6.8-26.5
				c0.7-3.4,1.2-8.6-0.6-10.3c-8.5-7.9-4-16-1.2-23.8c0.9-2.5,5-5.6,7.5-5.4c2.6,0.2,6.4,3.4,7.3,6.1c4.1,11.8,0,22.9-3.5,34.2
				C1769.1,407.7,1768.8,414.6,1767.8,421.3z"/>
			<path d="M1354.7,421c-2.3-8.1-5.7-16.1-6.7-24.4c-1.3-10.7-1.7-21.8-0.6-32.5c0.3-3.4,6.1-7.9,10.1-8.8c3-0.7,8,2.8,10.5,5.7
				c6.1,7.3,5.5,23.8,0.5,31.7c-1.2,1.8-0.2,5.5,0.6,8c2.9,9.1,6.6,18,0.8,26.4c-2.4-9.2-5.3-18.2-7-27.4c-0.7-3.6,0.2-8.1,2.1-11.3
				c4-6.9,3.8-19.8-1.5-25.8c-3.9-4.4-10.8-2.5-13.1,3.8c-4.4,11.9,0,22.9,3.3,34.2c1.9,6.5,2.4,13.5,3.5,20.3
				C1356.3,421,1355.5,421,1354.7,421z"/>
			<path d="M1767.8,421.3c1-6.7,1.2-13.6,3.2-19.9c3.4-11.3,7.6-22.4,3.5-34.2c-0.9-2.7-4.7-5.9-7.3-6.1c-2.4-0.2-6.5,2.9-7.5,5.4
				c-2.8,7.8-7.3,15.9,1.2,23.8c1.9,1.7,1.3,7,0.6,10.3c-1.8,8.7-4.4,17.3-6.8,26.5c-4.7-6.5-2.6-14.5-0.5-22.1
				c1.6-5.8,6-10.4-1.9-16.1c-5.2-3.7,2.7-29.1,8.9-32.7c6.1-3.6,15-1,15.7,6.5c1.2,11.7,0.3,23.7-1,35.4
				c-0.8,7.6-3.8,15.1-5.8,22.6C1769.4,420.9,1768.6,421.1,1767.8,421.3z"/>
		</g>
	</g>
</g>
<polyline fill="none" stroke="#000000" stroke-width="20" stroke-miterlimit="10" points="1484,113 1537,325 1474,508 1538,691 "/>
<polyline fill="none" stroke="#000000" stroke-width="20" stroke-miterlimit="10" points="1638,114 1627,316 1515,517 1584,692 "/>
<polygon fill="#FFFFFF" points="1542.4,672 1562.4,664.4 1584.4,725.4 1563.3,733 "/>
<polygon fill="#FFFFFF" points="1497,122 1487,92 1630,86 1627,135 "/>
</svg>
