<?xml version="1.0" encoding="iso-8859-1"?>
<!-- Generator: Adobe Illustrator 16.0.0, SVG Export Plug-In . SVG Version: 6.00 Build 0)  -->
<!DOCTYPE svg PUBLIC "-//W3C//DTD SVG 1.1//EN" "http://www.w3.org/Graphics/SVG/1.1/DTD/svg11.dtd">
<svg version="1.1" id="Layer_1" xmlns="http://www.w3.org/2000/svg" xmlns:xlink="http://www.w3.org/1999/xlink" x="0px" y="0px"
	 width="36px" height="36px" viewBox="0 0 36 36" style="enable-background:new 0 0 36 36;" xml:space="preserve">
<g>
	<path style="fill:#010101;" d="M19.304,32.359c-0.157-0.01-0.314-0.029-0.47-0.06l-0.466-0.25
		c-2.301-1.039-1.865-2.548-1.311-4.478c0.13-0.448,0.263-0.914,0.354-1.387c0.454-3.033,0.618-6.274-0.729-8.077
		c-1.071-1.435-3.637-1.408-3.786-3.333c-0.073-0.943,0.172-1.709,0.729-2.276c1.304-1.326,4.059-1.369,5.585-1.276
		c1.268,0.076,1.379,0.219,1.949,0.37c5.945,1.548,2.446,4.327,1.938,11.479C22.87,26.29,25.366,32.727,19.304,32.359z"/>
	<g>
		<path style="fill:#010101;" d="M12.688,5.567c-0.192,0-0.38,0.032-0.555,0.095c-0.568,0.2-0.985,0.688-1.176,1.369
			c-0.173,0.624-0.134,1.348,0.11,2.039c0.438,1.239,1.41,2.071,2.417,2.071c0.191,0,0.378-0.031,0.556-0.095
			c0.55-0.194,0.961-0.664,1.157-1.321c0.193-0.635,0.16-1.375-0.092-2.086C14.667,6.4,13.695,5.567,12.688,5.567z"/>
		<path style="fill:#010101;" d="M16.706,6.508c-0.685,0.159-1.059,0.982-0.852,1.875c0.173,0.767,0.762,1.343,1.368,1.343
			c0.075,0,0.151-0.009,0.213-0.024c0.271-0.062,0.51-0.237,0.672-0.495c0.232-0.37,0.299-0.874,0.183-1.382
			C18.089,6.955,17.428,6.369,16.706,6.508z"/>
		<path style="fill:#010101;" d="M19.872,6.893c-0.603,0.002-1.089,0.576-1.134,1.335c-0.023,0.363,0.061,0.714,0.237,0.987
			c0.184,0.288,0.459,0.464,0.781,0.482h0.026c0.576,0,1.063-0.588,1.109-1.341c0.02-0.366-0.066-0.716-0.239-0.981
			C20.471,7.089,20.197,6.913,19.872,6.893z"/>
		<path style="fill:#010101;" d="M23.261,8.577c-0.125-0.316-0.362-0.543-0.653-0.618c-0.599-0.154-1.205,0.337-1.399,1.08
			c-0.11,0.422-0.065,0.851,0.123,1.172c0.134,0.23,0.337,0.392,0.573,0.454c0.068,0.018,0.14,0.026,0.211,0.026
			c0.514,0,1.025-0.476,1.189-1.106C23.396,9.233,23.38,8.876,23.261,8.577z"/>
		<path style="fill:#010101;" d="M25.101,10.111c-0.103-0.259-0.298-0.445-0.527-0.508l-0.194-0.025
			c-0.426,0-0.835,0.379-0.97,0.899c-0.076,0.286-0.063,0.578,0.035,0.82c0.103,0.26,0.298,0.446,0.554,0.515l0.163,0.019
			c0.431,0,0.841-0.379,0.975-0.9C25.211,10.642,25.198,10.358,25.101,10.111z"/>
	</g>
</g>
</svg>
