<?xml version="1.0" encoding="utf-8"?>
<!-- Generator: Adobe Illustrator 18.0.0, SVG Export Plug-In . SVG Version: 6.00 Build 0)  -->
<!DOCTYPE svg PUBLIC "-//W3C//DTD SVG 1.1//EN" "http://www.w3.org/Graphics/SVG/1.1/DTD/svg11.dtd">
<svg version="1.1" xmlns="http://www.w3.org/2000/svg" xmlns:xlink="http://www.w3.org/1999/xlink" x="0px" y="0px"
	 viewBox="1044 0 1024 768" enable-background="new 1044 0 1024 768" xml:space="preserve">
<g id="Layer_1">
</g>
<g id="Layer_2">
	<g>
		<path fill="#FFFFFF" stroke="#000000" stroke-width="9" stroke-miterlimit="10" d="M1308.1,638.8c-2.5-2.9-4.9-5.9-7.1-9.1
			l-3.7-12.3c-21.7-57.5,11.8-76,54.5-99.7c9.9-5.5,20.3-11.2,30-17.8c60-44.4,118.6-97.4,126.5-151.6c6.3-43.1-38.4-86.8-7.8-122.6
			c15-17.5,32.4-26.5,51.7-26.6c45.3-0.4,93.4,46.3,118.1,74.2c20.5,23.1,20,27.5,27.2,39.9c75.7,129-32.4,116.6-164.2,231
			C1473.9,595.7,1406.1,749.5,1308.1,638.8z"/>
		<g>
			<path fill="#FFFFFF" stroke="#000000" stroke-width="9" stroke-miterlimit="10" d="M1655.4,63.7c-3.3-3.3-7.1-6-11.2-7.9
				c-13.2-6.3-28.8-5.1-43.8,3.3c-13.7,7.8-25.5,20.9-33.2,37c-13.8,28.9-11.4,59.9,6,77.3c3.3,3.3,7,6,11.2,7.9
				c12.8,6.1,28,5.1,42.7-2.8c14.3-7.6,26.4-20.9,34.3-37.5C1675.1,112.1,1672.7,81,1655.4,63.7z"/>
			<path fill="#FFFFFF" stroke="#000000" stroke-width="9" stroke-miterlimit="10" d="M1708.4,149.1c-14.5-9.1-35.1-1.3-46.9,17.6
				c-10.2,16.2-10,36.2,0.4,46.7c1.3,1.3,2.8,2.4,4.1,3.3c5.7,3.6,12.9,4.7,20.1,3c10.4-2.4,20.2-9.9,26.9-20.6
				C1724.5,180.6,1723.2,159.1,1708.4,149.1z"/>
			<path fill="#FFFFFF" stroke="#000000" stroke-width="9" stroke-miterlimit="10" d="M1756.2,210.2c-10.4-10.3-28.7-8.8-42.5,3.5
				c-6.6,5.9-11.2,13.3-12.9,21.1c-1.8,8.1-0.1,15.9,5.1,21.7l0.4,0.4c9.9,9.9,28.4,8.2,42.2-4c6.6-6,11.2-13.5,12.8-21
				C1763.2,223.9,1761.5,216.1,1756.2,210.2z"/>
			<path fill="#FFFFFF" stroke="#000000" stroke-width="9" stroke-miterlimit="10" d="M1785.6,297.5c3.3-7.6,3.1-15.6-0.6-21.9
				c-7.7-13-26.5-14.9-42.7-5.5c-9.2,5.4-15.8,13.5-18.1,22.3c-1.7,6.3-0.9,12.5,2,17.7c0.9,1.5,2,2.9,3.2,4.1
				c8.8,8.8,25.8,9.5,39.5,1.4C1776.6,311.1,1782.5,304.7,1785.6,297.5z"/>
			<path fill="#FFFFFF" stroke="#000000" stroke-width="9" stroke-miterlimit="10" d="M1790.9,355.6c2.7-6.2,2.5-12.8-0.3-17.8
				l-2.9-3.8c-7.3-7.3-20.9-7.8-32.2-1.2c-6.2,3.6-11,8.9-13.5,14.7c-2.7,6.2-2.5,12.8,0.7,18.4l2.5,3.1c7.4,7.4,21,8,32.3,1.3
				C1783.6,366.6,1788.3,361.5,1790.9,355.6z"/>
		</g>
	</g>
</g>
</svg>
