<?xml version="1.0" encoding="utf-8"?>
<!-- Generator: Adobe Illustrator 18.0.0, SVG Export Plug-In . SVG Version: 6.00 Build 0)  -->
<!DOCTYPE svg PUBLIC "-//W3C//DTD SVG 1.1//EN" "http://www.w3.org/Graphics/SVG/1.1/DTD/svg11.dtd">
<svg version="1.1" id="Layer_1" xmlns="http://www.w3.org/2000/svg" xmlns:xlink="http://www.w3.org/1999/xlink" x="0px" y="0px"
	 viewBox="1044 0 1024 768" enable-background="new 1044 0 1024 768" xml:space="preserve">
<path fill="#F2F2F2" stroke="#000000" stroke-width="20" stroke-miterlimit="10" d="M1531.4,672l-56-160.1c-0.9-2.5-0.9-5.3,0-7.8
	l60.5-175.8c0.8-2.2,0.9-4.5,0.3-6.8l-48.9-195.7c-1.8-7.2-9.7-11-16.4-8C1439.4,132.1,1361,161,1354,334c-36,11-42,76-2,128
	c10.6-9.3,20.3,9.2,22.4,14.9c17.8,50.4,71.6,185.9,141.9,210.3C1525.7,690.5,1534.6,681.4,1531.4,672z"/>
<path fill="#F2F2F2" stroke="#000000" stroke-width="20" stroke-linejoin="round" stroke-miterlimit="10" d="M1637.8,114
	c31.5,14.2,113.6,50,120.6,223c36,11,42,76,2,128c-10.6-9.3-20.3,9.2-22.4,14.9c-17.8,50.4-71.6,185.9-141.9,210.3
	c-9.4,3.3-10.2,5.8-16.2-6.2l0.4,0.8L1515,517l112-201l11-202L1637.8,114z"/>
</svg>
