<?xml version="1.0" encoding="utf-8"?>
<!-- Generator: Adobe Illustrator 18.0.0, SVG Export Plug-In . SVG Version: 6.00 Build 0)  -->
<!DOCTYPE svg PUBLIC "-//W3C//DTD SVG 1.1//EN" "http://www.w3.org/Graphics/SVG/1.1/DTD/svg11.dtd">
<svg version="1.1" xmlns="http://www.w3.org/2000/svg" xmlns:xlink="http://www.w3.org/1999/xlink" x="0px" y="0px"
	 viewBox="1044 0 1024 768" enable-background="new 1044 0 1024 768" xml:space="preserve">
<g id="Layer_1">
	<g id="ef0QXr_1_">
		<g>
			<path fill="#7B0708" d="M1509.6,172.1c2.4-7.1,4-13.6,6.6-19.7c1.6-3.8,4-5,7.7-4.2c0.9,0.2,1.7,0.3,2.6,0.5
				c12.5,3.1,13.6,5,9.6,16.9c-3.7,10.8-6.9,21.8-8.9,33.1c-0.2,1.3-0.8,2.7,0.2,4.6c6.2-7.3,13.1-13.5,20.3-19.3
				c1.2-1,1.6-2.2,1.6-3.7c0.2-7.4,0-14.9-2.6-21.9c-1.1-2.8-0.5-4.2,1.5-5.8c2.2-1.8,4.5-3.3,7.1-4.4c14.8-6.4,20-3.8,22.8,11.8
				c0.7,4.1,1.9,4.3,5.2,2.9c5-2.2,10.4-3.2,15.8-4c2.9-0.4,4-1.5,4.2-4.2c0.1-2.1,0.5-4.2,0.7-6.3c0.7-7.1,1.5-8.1,8.5-8.7
				c2.6-0.2,5.3-0.2,7.9,0.4c9.7,2,11.2,4,9.2,13.6c-0.9,4.6,0.2,6.4,4.8,8.8c14.2,7.3,21.9,20,25.3,35.3c0.9,3.9,2.1,4.2,5.5,3.7
				c10.8-1.8,11.3-1.4,14.7,8.8c2.8,8.5,3.6,17.2,3,26.1c-0.3,4.1-1.8,6.6-6.1,7.8c-8.3,2.3-16.7,4.3-24.5,8.1
				c-6.3,3.1-6.3,3.6-0.6,7.3c11.2,7.4,22.4,14.7,33.1,22.6c28.8,21.3,38.2,49.6,31.4,84.2c-4.5,23.1-11.5,45.3-20.8,66.9
				c-18.7,43.7-43.2,83.7-75.6,118.7c-12.6,13.6-26.6,25.6-42.3,35.6c-18.9,12.2-37.3,12.2-56.4,0.1c-21.5-13.7-39.7-31-55.7-50.6
				c-36.9-45.1-65.1-95-81.9-151.1c-3.6-11.8-6-23.9-6.7-36.3c-1.4-25.4,8-46.4,26.8-63.3c12.8-11.5,27.4-20.2,42.4-28.4
				c16.7-9.2,24.7-23.8,27.9-41.7c3.1-17,1.5-34.1,0.7-51.1c-0.2-4.8,1.3-7.6,5.4-9.5c2.9-1.4,5.7-2.8,8.8-3.5
				c15.5-3.2,15.1-3.2,18.8,12.9C1508.1,167,1507.9,169.2,1509.6,172.1z M1634.3,302c-5.6-4.9-5.8-11.6-7.5-17.4
				c-5.6-20,0.7-31.5,17.8-41c7.6-4.2,16-6.2,24.4-8c1.9-0.4,4.5-0.3,4.6-3.4c0.2-6.2,0.1-12.3-2.8-18c-1.6-3.1-4.5-4.4-7.4-3
				c-4.8,2.3-10,3.2-15,4.7c-16,4.7-32.2,8.9-47,17c-9.6,5.3-17.5,12.2-21.7,22.8c-4.3,11-3.8,22.4-2.7,33.8
				c0.7,6.8,2.2,13.5,3.4,20.2c0.2,1,0.6,2.1-0.6,2.8c-0.8,0.4-1.4-0.2-1.7-0.8c-2.4-5.1-6.5-9-8.2-14.6c-2.3-7.7-4.2-15.6-4.9-23.6
				c-1-10.9,0.7-21.4,7.1-30.7c8.7-12.5,21.7-19.1,35.1-25c12-5.3,24.4-9.8,37.3-12.8c4-1,5.1-2.6,4.2-7.1
				c-2.5-11.9-9.4-21-19.9-25.7c-7.3-3.2-8.9-7.3-7.9-14c0.2-1.6,0.1-3.2,0.6-4.7c1.1-3.4,0.3-5.3-3.4-6.1c-3.7-0.8-6,0.4-6.3,4.2
				c-0.3,4.2-0.5,8.4-0.5,12.6c0,3.1-0.9,4.5-4.3,5.2c-10.9,2.2-21.6,5.2-31.2,10.9c-4,2.3-4.3,0.7-4.6-2.7
				c-0.5-5.6-1.6-11.1-1.9-16.7c-0.3-4.9-3.4-4.7-6.7-4.2c-3.4,0.5-5.6,2.1-4.4,6.1c1.8,6.1,1.1,12.6,2.1,18.8
				c0.6,3.5-0.7,6.8-4.2,9c-7,4.4-12.8,10.3-18.3,16.5c-14.4,16.3-23.3,35.8-33,54.9c-6.4,12.5-12.9,25-24.1,34.2
				c-5.2,4.2-10.9,7.7-18.2,8.2c0.3-1,0.3-1.4,0.5-1.6c16.6-11,26-27,32.2-45.5c3.8-11.3,8-22.7,15-32.4c3.3-4.6,5.1-9.3,6.1-14.7
				c3.1-16.5,5.3-33.3,12.7-48.7c1.4-2.8-0.1-3.8-2.3-4.6c-2.5-1-4.7-1.4-5.8,2c-2.9,8.8-6.1,17.6-9,26.5
				c-2.1,6.5-3.9,13.1-5.9,19.9c-1.9-1.4-1.4-2.8-1.4-3.9c-0.6-12-2.6-23.7-5.1-35.4c-1.1-5.1-4-6-7.9-4.8c-3,0.8-7.5,0.7-7.7,5
				c-0.2,5.6,0.7,11.2,1,16.8c0.8,15.1,1.9,30.2-1,45.2c-3.8,19.6-16,32.6-33.3,41.6c-14.3,7.5-28.8,14.6-39.7,27.3
				c-11.7,13.5-18.1,29.1-19.5,46.8c-1.5,18.7,3.7,36.3,9.4,53.6c9.3,27.9,22.9,54,38.3,79c12.4,20,26.1,39.2,41.6,56.9
				c12.9,14.8,26.1,29.4,43.1,39.7c15.2,9.2,30.5,9.6,45.9,0.9c13-7.4,23.2-18,33.3-28.8c15.2-16.2,28.5-33.9,40.8-52.3
				c19.8-29.7,37.1-60.8,49-94.7c6.9-19.5,12.6-39.1,11.5-60.1c-0.6-10.8-4.2-20.3-10.7-28.6c-14.2-18.2-32.9-30.7-53-41.4
				c-3.9-2-5.4-0.5-5.6,2.9c-0.4,6.6-2.4,13.1-1,19.9C1634.9,294.1,1634.3,297.8,1634.3,302z"/>
			<path fill="#D51921" d="M1634.3,302c0-4.2,0.6-7.9-0.1-11.4c-1.4-6.8,0.6-13.3,1-19.9c0.2-3.4,1.7-4.9,5.6-2.9
				c20.1,10.7,38.8,23.2,53,41.4c6.5,8.3,10.1,17.9,10.7,28.6c1.2,21-4.6,40.7-11.5,60.1c-12,33.8-29.2,65-49,94.7
				c-12.3,18.4-25.6,36-40.8,52.3c-10.1,10.8-20.4,21.4-33.3,28.8c-15.4,8.8-30.7,8.4-45.9-0.9c-17-10.4-30.2-24.9-43.1-39.7
				c-15.5-17.8-29.2-36.9-41.6-56.9c-15.5-25-29-51-38.3-79c-5.8-17.3-10.9-34.9-9.4-53.6c1.4-17.7,7.8-33.2,19.5-46.8
				c10.9-12.6,25.4-19.8,39.7-27.3c17.3-9,29.5-22,33.3-41.6c2.9-15,1.8-30.1,1-45.2c-0.3-5.6-1.2-11.2-1-16.8
				c0.2-4.3,4.7-4.2,7.7-5c3.9-1.1,6.8-0.3,7.9,4.8c2.5,11.7,4.6,23.4,5.1,35.4c0.1,1.1-0.4,2.5,1.4,3.9c2-6.8,3.8-13.4,5.9-19.9
				c2.9-8.9,6-17.6,9-26.5c1.1-3.4,3.3-3,5.8-2c2.3,0.9,3.7,1.8,2.3,4.6c-7.4,15.4-9.6,32.2-12.7,48.7c-1,5.5-2.8,10.2-6.1,14.7
				c-7,9.8-11.2,21.1-15,32.4c-6.2,18.5-15.6,34.5-32.2,45.5c-0.2,0.1-0.2,0.6-0.5,1.6c7.3-0.5,13-4,18.2-8.2
				c11.2-9.1,17.7-21.6,24.1-34.2c9.7-19.1,18.7-38.6,33-54.9c5.5-6.2,11.3-12.1,18.3-16.5c3.5-2.2,4.8-5.4,4.2-9
				c-1-6.2-0.3-12.7-2.1-18.8c-1.2-4,1-5.6,4.4-6.1c3.2-0.5,6.4-0.7,6.7,4.2c0.3,5.6,1.4,11.1,1.9,16.7c0.3,3.4,0.7,5.1,4.6,2.7
				c9.7-5.7,20.4-8.7,31.2-10.9c3.4-0.7,4.3-2.1,4.3-5.2c0-4.2,0.1-8.4,0.5-12.6c0.3-3.8,2.6-5,6.3-4.2c3.6,0.8,4.4,2.8,3.4,6.1
				c-0.5,1.5-0.4,3.1-0.6,4.7c-0.9,6.7,0.7,10.8,7.9,14c10.6,4.7,17.4,13.7,19.9,25.7c0.9,4.4-0.2,6.1-4.2,7.1
				c-12.9,3-25.2,7.5-37.3,12.8c-13.4,5.9-26.4,12.5-35.1,25c-6.5,9.2-8.1,19.8-7.1,30.7c0.7,8,2.5,15.8,4.9,23.6
				c1.7,5.6,5.8,9.5,8.2,14.6c0.3,0.6,0.9,1.2,1.7,0.8c1.2-0.7,0.7-1.8,0.6-2.8c-1.1-6.7-2.7-13.4-3.4-20.2
				c-1.1-11.4-1.6-22.8,2.7-33.8c4.1-10.5,12-17.5,21.7-22.8c14.8-8.1,31-12.3,47-17c5-1.5,10.2-2.4,15-4.7c2.9-1.4,5.8-0.1,7.4,3
				c2.9,5.7,3,11.8,2.8,18c-0.1,3-2.7,3-4.6,3.4c-8.4,1.8-16.9,3.8-24.4,8c-17.1,9.5-23.4,21-17.8,41
				C1628.4,290.4,1628.6,297.1,1634.3,302z M1625,455.3c0.4,3.9-0.7,7.5,1,10.9c0.5,0.9,1,1.9,2.3,1.8c1-0.1,1.6-0.9,1.7-1.8
				c1.6-8.5,3.3-17.3-1.1-25.3c-4.3-7.7-6-16-8.2-24.3c-0.9-3.6-0.2-6.8,1.2-10.1c2.3-5.5,6.5-10.1,7.7-16.1c0.2-1.2,1-2.5,0.2-3.5
				c-1.1-1.4-2.2,0.2-3.3,0.3c-4.5,0.4-7.1,2.6-7.9,7.2c-0.3,2-1.3,4-2.4,5.8c-9.6,15.5-19.3,30.9-28.8,46.4c-3,4.9-7,9.1-8.2,15.1
				c-1.7,8.5,0,16.8,0.9,25.1c1.2,10.8-0.6,21-4.3,30.9c-2.8,7.4-7.9,13.1-14.6,17.4c-3.9,2.5-6.3,5.4-3.4,10.4
				c2.1,3.6,4.1,7.4,4.7,11.6c0.2,1.7,0.7,3.1,2.9,2.9c2.7-0.2,2.3-2.1,2.4-3.9c0.2-3.9-1.5-7.2-2.9-10.6c-1-2.3-1.7-4.7,1.3-6.4
				c6.2-3.4,10.9-8.2,14.5-14.2c1.2-2.1,2.2-2.6,3.4,0.3c2.4,5.9,5.5,11.4,10.5,15.5c1.3,1.1,2.4,3.2,4.4,1.7
				c1.6-1.2,2.1-3.2,1.3-5.3c-1.4-3.4-3-6.7-5.2-9.7c-4.5-6.4-7.7-13.1-7.3-21.4c0.5-11.4,0.4-22.7-2.6-34c-1.8-6.6-0.4-13.2,5.7-18
				c3.7-2.9,6.9-6.5,9.1-10.8c3.3-6.8,7.4-13.2,11.8-19.2c0.8-1.1,1.7-2.5,3.4-1.9c1.3,0.5,1.4,1.9,1.6,3.1
				c0.9,4.5,0.9,9.3,3.6,13.1C1624.1,443.7,1626.1,449.3,1625,455.3z M1465.6,380.9c0.1,3.3-0.4,5.5-4,5.1c-2.4-0.3-3.3,1.4-3.5,3.6
				c-0.5,5.4-1.2,10.8-1.8,16.2c-1.9,16.6,3.4,34,20.5,41.1c1.5,0.6,2.9,1.3,4.2,2.2c4.2,2.6,7.3,5.8,6.8,11.4
				c-0.6,7.7-0.2,15.5,2,23c1.6,5.5,0.2,10.7-1,16c-0.5,2.4-1.4,4.7-1.9,7.1c-0.3,1.3-0.9,3.1,1,3.6c1.7,0.5,2.3-1,2.8-2.4
				c2.9-9,6.2-17.9,4.3-27.6c-1-5.3-1.4-10.7-0.2-16.1c0.7-3.4,1.5-3.7,4.4-1.9c5.2,3.3,7.4,8.2,8.7,13.8c0.3,1.2,0.6,2.6,2.2,2.4
				c1.5-0.2,1.8-1.6,1.7-2.9c-0.3-5.3-0.8-10.4-4.8-14.6c-10.2-10.5-21-20.1-33.9-27.3c-4.9-2.7-8.2-6.6-9.1-12.7
				c-1-6.7-0.5-13.3-0.7-20c0-1.4-0.8-3.7,1.3-4.1c1.8-0.3,2.2,1.9,3,3.3c5.9,10.2,11.5,20.5,21.4,27.6c2.9,2.1,4.4,5.4,5.4,8.9
				c0.9,3.1,2.6,5.7,4.6,8.2c0.8,1,2.1,1.4,3.3,1c1.6-0.5,1.4-2,1.1-3.1c-2-7.5-4.3-15.1-10.7-20c-10.9-8.5-17.4-19.6-20.7-32.7
				C1470.9,386.3,1469.4,383.5,1465.6,380.9z M1634.5,343.5c-0.2-2.9,0.4-5.3-0.8-7.4c-7.3-12.6-15.1-24.6-31.5-26.5
				c-2.2-0.3-5.1-1.7-6.1,0.8c-1.1,2.8,2.6,3.3,4.2,4.4c2.7,1.9,5.9,3.1,8.9,4.6c3,1.4,5.8,3.2,8.3,5.5c4,3.7,6.8,7.9,7.6,13.4
				c0.8,5.2-0.9,9.2-5.3,12.1c-0.8,0.5-1.3,1.7-1.9,2.5c-1.4,2.1-1.1,3.7,1.6,4c5.8,0.6,5.3,5.1,3.8,8c-2,3.8-1.5,7.6-1.2,11.2
				c0.2,3.1,0.7,5-3.3,4.9c-1.4,0-3.3,0.7-2.9,2.9c0.3,1.7,1.9,1.9,3.3,1.9c5.4-0.3,11.5-2.2,11.1-10.1c-0.4-9.3-1.8-19,3.7-27.7
				C1634.9,346.6,1634.4,344.5,1634.5,343.5z M1597.4,349.7c-2.2,0.4-4.2,1.4-4,2.3c0.9,4.2-6.8,7.7-1.1,12.2
				c0.4,0.3,0.2,1.3,0.2,2.1c0.2,4-0.4,8.1,0.7,12.1c0.4,1.4,0.1,3.1-2,2.8c-1.5-0.2-2.3,0.4-3,1.5c-2.8,4.2-7,5.5-11.8,5.5
				c-5.7,0-14.2,6.4-16.2,11.9c-1.8,4.9,0.1,12.7,3.9,16.2c0.8,0.7,1.6,1.6,2.7,0.9c1-0.6,1.3-1.7,1.1-2.8c-0.3-1.4-1-2.6-1.4-4
				c-1.7-5,0.3-10.4,4.8-13.3c6.4-4.1,13.4-6.7,20.5-9.2c4.3-1.6,11.6,0.4,12.6-7.3c0.6,0.2,1.2,0.5,1.9,0.6
				c3.2,0.6,4.9-2.1,5.4-3.9c0.7-2.8-2.5-1-3.7-1.8c-4.2-3.3-6.3,0.8-9.1,2.9c-2.3-3.5-0.9-7.1-1.2-10.5c-0.3-2.8-0.1-5.4,3.9-5.1
				c1.4,0.1,2.4-0.4,2.3-2.1c-0.1-1.7-1.4-1.9-2.7-1.8c-3.3,0.3-3.8-1.7-3.6-4.3C1597.5,352.9,1597.4,351.5,1597.4,349.7z
				 M1465.4,364c0-4.5-1.4-9.6,5.7-9.2c0.7,0,1.8-1.2,2.2-2.1c4.1-9.4,10.9-17.1,16.3-25.7c5.5-8.8,12.3-16.3,23.8-16.9
				c1.2-0.1,2.4-0.3,3.6-0.6c1.3-0.3,2.3-1.1,2.2-2.5c-0.1-1.2-1-2-2.1-2.1c-8.7-0.7-17.8-1-24.2,5.9c-11.4,12.2-20.8,26-28.3,41
				C1462.4,356.2,1461.9,359.8,1465.4,364z M1455.2,373.7c-2,2.9-3.4,5.5-4.7,8.2c-5.5,10.5-8.6,22.3-16.5,31.6
				c-3.1,3.6-2.1,10.7,1.4,14.4c0.9,0.9,1.7,2.6,3.4,1.5c1.5-1,1-2.4,0.4-3.8c-1.3-3.2-2.1-6.3,0.5-9.4c4.4-5.2,6.9-11.4,10-17.3
				C1453.8,391.3,1458.1,383.6,1455.2,373.7z M1678.3,385.5c-0.4-2.3-1.9-3.4-2.9-4.8c-6.9-9.1-6.9-9.1,0.5-17.8
				c0.7-0.8,2.4-1.6,1.1-2.9c-0.9-0.9-2.4-0.6-3.5-0.2c-1.4,0.5-2.1,1.8-3,2.8c-2.1,2.4-4.3,4.7-7.5,8c0-5.6,0.3-9.8-0.1-13.9
				c-0.2-2.3,2.2-6.6-2.6-6.5c-4.5,0.2-2.2,4.4-2.3,6.7c-0.3,7.5-0.2,15.1,0,22.7c0,2.3-1.3,6.1,2.9,6c3.6-0.1,1.5-3.6,2.1-5.5
				c0.1-0.3,0-0.7,0-1.1c0-1.5,0.2-2.9,1.9-3.4c1.5-0.4,2.2,0.9,2.9,1.8c1.7,2,3.4,4,4.8,6.2C1674,386,1675.8,386.2,1678.3,385.5z
				 M1633.6,372.4c0,1.2,0,2.5,0,3.7c-0.1,4.1,1.5,7.1,5.3,8.8c3.9,1.7,7.9,1.8,11.5-0.8c1.2-0.9,3.7-1.9,2.3-4c-1.3-2-3-1-4.9,0.3
				c-4.8,3.3-9.1,1-9.2-4.7c-0.1-2.3,0.1-4.6-0.1-6.8c-0.4-4.4,1.9-5.5,5.8-5.3c1.9,0.1,3.3,0.9,4.6,2.2c1.4,1.4,2.7,0.6,3.7-0.3
				c1.6-1.5,0-2.3-1-3.3c-3.9-4.1-8.9-3.4-13.3-2c-4,1.3-5.2,5.4-4.8,9.6C1633.7,370.7,1633.6,371.5,1633.6,372.4z M1463.2,373.4
				c0.1,0,0.1,0,0.2,0c-0.1-3-0.1-6-0.5-8.9c-0.1-1.1-0.6-2.6-2.2-2.5c-1.1,0.1-1.5,1.3-1.9,2.3c-1.7,5.7-0.7,11.5-0.9,17.3
				c-0.1,1.5,0.9,2.2,2.3,2.2c1.6,0,2.8-0.9,2.8-2.5C1463.3,378.7,1463.2,376,1463.2,373.4z M1608.1,368c0,0.9,0,1.8,0,2.6
				c0,1.4,0.3,2.4,1.9,2.6c1.6,0.1,2.4-0.8,2.2-2.2c-0.9-5.7,2.8-6.8,7.2-7.1c1.5-0.1,2.3-0.7,2.3-2.2c0-1.2-0.6-1.8-1.8-2.2
				C1613.1,357.4,1608.5,360.8,1608.1,368z M1469.4,380.4c0.9-7.5-0.7-14.3,1.1-20.8c0.2-0.9-0.1-1.8-1.2-2c-1.5-0.2-1.8,0.9-1.8,2
				c-0.1,3.7-0.2,7.4,0,11.1C1467.7,373.7,1466.5,377,1469.4,380.4z M1621.5,366.5c-3.4-0.6-5.6-1.7-6.7,1c-0.3,0.8,0,2.8,0.3,2.8
				C1617.7,370.8,1618.4,368.1,1621.5,366.5z"/>
			<path fill="#08367A" d="M1625,455.3c1-6-1-11.6-4.7-16.9c-2.7-3.8-2.8-8.6-3.6-13.1c-0.2-1.2-0.3-2.6-1.6-3.1
				c-1.7-0.6-2.6,0.8-3.4,1.9c-4.5,6.1-8.5,12.5-11.8,19.2c-2.1,4.4-5.4,7.9-9.1,10.8c-6.1,4.8-7.5,11.4-5.7,18
				c3.1,11.3,3.1,22.6,2.6,34c-0.4,8.3,2.9,15,7.3,21.4c2.2,3.1,3.8,6.3,5.2,9.7c0.8,2,0.3,4.1-1.3,5.3c-1.9,1.5-3.1-0.6-4.4-1.7
				c-5-4.1-8.1-9.6-10.5-15.5c-1.2-2.9-2.2-2.3-3.4-0.3c-3.6,6-8.3,10.9-14.5,14.2c-3,1.6-2.2,4-1.3,6.4c1.4,3.4,3.2,6.7,2.9,10.6
				c-0.1,1.7,0.3,3.7-2.4,3.9c-2.2,0.1-2.6-1.2-2.9-2.9c-0.6-4.3-2.6-8-4.7-11.6c-2.9-5.1-0.5-8,3.4-10.4c6.7-4.3,11.9-10,14.6-17.4
				c3.7-9.9,5.4-20.1,4.3-30.9c-0.9-8.3-2.6-16.6-0.9-25.1c1.2-6.1,5.2-10.3,8.2-15.1c9.4-15.6,19.2-30.9,28.8-46.4
				c1.1-1.8,2.1-3.8,2.4-5.8c0.8-4.6,3.4-6.9,7.9-7.2c1.1-0.1,2.2-1.7,3.3-0.3c0.8,1.1,0.1,2.3-0.2,3.5c-1.2,6-5.4,10.6-7.7,16.1
				c-1.4,3.4-2.1,6.6-1.2,10.1c2.2,8.3,3.8,16.6,8.2,24.3c4.5,7.9,2.7,16.7,1.1,25.3c-0.2,0.9-0.7,1.6-1.7,1.8
				c-1.3,0.2-1.8-0.8-2.3-1.8C1624.3,462.8,1625.5,459.2,1625,455.3z"/>
			<path fill="#08367A" d="M1465.6,380.9c3.8,2.6,5.4,5.5,6.3,9.1c3.4,13.1,9.9,24.2,20.7,32.7c6.3,5,8.7,12.5,10.7,20
				c0.3,1.1,0.5,2.6-1.1,3.1c-1.3,0.4-2.5,0-3.3-1c-2-2.4-3.7-5.1-4.6-8.2c-1-3.5-2.4-6.7-5.4-8.9c-9.9-7.1-15.5-17.5-21.4-27.6
				c-0.8-1.3-1.1-3.6-3-3.3c-2,0.4-1.3,2.6-1.3,4.1c0.2,6.7-0.3,13.3,0.7,20c0.9,6.1,4.2,10,9.1,12.7c12.9,7.2,23.7,16.8,33.9,27.3
				c4,4.1,4.5,9.3,4.8,14.6c0.1,1.2-0.1,2.7-1.7,2.9c-1.6,0.2-2-1.2-2.2-2.4c-1.2-5.6-3.4-10.6-8.7-13.8c-2.9-1.8-3.7-1.5-4.4,1.9
				c-1.2,5.5-0.8,10.8,0.2,16.1c1.9,9.8-1.4,18.7-4.3,27.6c-0.5,1.4-1,3-2.8,2.4c-1.8-0.5-1.2-2.3-1-3.6c0.5-2.4,1.4-4.7,1.9-7.1
				c1.2-5.3,2.6-10.5,1-16c-2.2-7.5-2.5-15.3-2-23c0.4-5.6-2.6-8.8-6.8-11.4c-1.3-0.8-2.8-1.6-4.2-2.2
				c-17.1-7.1-22.4-24.6-20.5-41.1c0.6-5.4,1.3-10.8,1.8-16.2c0.2-2.3,1-3.9,3.5-3.6C1465.1,386.4,1465.6,384.2,1465.6,380.9z"/>
			<path fill="#08367A" d="M1634.5,343.5c-0.1,1.1,0.4,3.2-0.5,4.5c-5.5,8.7-4.1,18.4-3.7,27.7c0.4,7.9-5.8,9.9-11.1,10.1
				c-1.5,0.1-3-0.1-3.3-1.9c-0.4-2.2,1.5-2.9,2.9-2.9c4,0.1,3.6-1.9,3.3-4.9c-0.3-3.7-0.8-7.4,1.2-11.2c1.5-3,2-7.4-3.8-8
				c-2.7-0.3-3.1-1.9-1.6-4c0.6-0.9,1-2,1.9-2.5c4.4-2.9,6.1-6.8,5.3-12.1c-0.8-5.5-3.6-9.7-7.6-13.4c-2.5-2.3-5.3-4.1-8.3-5.5
				c-3-1.4-6.2-2.7-8.9-4.6c-1.6-1.1-5.3-1.6-4.2-4.4c1-2.5,3.9-1.1,6.1-0.8c16.4,1.9,24.2,13.9,31.5,26.5
				C1635,338.1,1634.4,340.5,1634.5,343.5z"/>
			<path fill="#08367A" d="M1597.4,349.7c0,1.9,0.1,3.3,0,4.6c-0.2,2.6,0.3,4.6,3.6,4.3c1.3-0.1,2.5,0.1,2.7,1.8
				c0.1,1.7-1,2.2-2.3,2.1c-4-0.4-4.2,2.2-3.9,5.1c0.3,3.4-1,7,1.2,10.5c2.8-2,4.9-6.1,9.1-2.9c1.1,0.9,4.4-1,3.7,1.8
				c-0.5,1.8-2.2,4.5-5.4,3.9c-0.6-0.1-1.3-0.4-1.9-0.6c-1.1,7.6-8.3,5.7-12.6,7.3c-7.1,2.6-14.1,5.2-20.5,9.2
				c-4.5,2.9-6.5,8.3-4.8,13.3c0.4,1.3,1.1,2.6,1.4,4c0.3,1.1,0,2.1-1.1,2.8c-1.2,0.7-2-0.1-2.7-0.9c-3.8-3.5-5.6-11.3-3.9-16.2
				c2-5.4,10.5-11.8,16.2-11.9c4.9,0,9-1.3,11.8-5.5c0.7-1.1,1.5-1.7,3-1.5c2.1,0.3,2.4-1.4,2-2.8c-1.1-4-0.5-8.1-0.7-12.1
				c0-0.7,0.2-1.8-0.2-2.1c-5.7-4.6,2-8,1.1-12.2C1593.2,351.1,1595.2,350.1,1597.4,349.7z"/>
			<path fill="#08367A" d="M1465.4,364c-3.5-4.2-3-7.8-0.8-12.2c7.5-15,16.9-28.8,28.3-41c6.4-6.9,15.5-6.5,24.2-5.9
				c1.1,0.1,2,0.9,2.1,2.1c0.1,1.4-0.8,2.3-2.2,2.5c-1.2,0.3-2.4,0.5-3.6,0.6c-11.5,0.6-18.2,8-23.8,16.9
				c-5.4,8.6-12.2,16.3-16.3,25.7c-0.4,0.9-1.5,2.2-2.2,2.1C1464.1,354.4,1465.4,359.5,1465.4,364z"/>
			<path fill="#08367A" d="M1455.2,373.7c2.9,9.9-1.4,17.6-5.5,25.3c-3.1,5.9-5.7,12.1-10,17.3c-2.6,3.1-1.8,6.2-0.5,9.4
				c0.6,1.4,1.1,2.8-0.4,3.8c-1.7,1.1-2.5-0.6-3.4-1.5c-3.5-3.7-4.5-10.8-1.4-14.4c8-9.3,11-21.1,16.5-31.6
				C1451.8,379.2,1453.2,376.6,1455.2,373.7z"/>
			<path fill="#7B0708" d="M1678.3,385.5c-2.5,0.7-4.3,0.4-5.7-1.7c-1.4-2.2-3.1-4.2-4.8-6.2c-0.7-0.9-1.4-2.3-2.9-1.8
				c-1.6,0.5-1.8,1.9-1.9,3.4c0,0.4,0.1,0.7,0,1.1c-0.6,1.9,1.6,5.3-2.1,5.5c-4.2,0.1-2.9-3.6-2.9-6c-0.2-7.6-0.3-15.1,0-22.7
				c0.1-2.3-2.2-6.6,2.3-6.7c4.7-0.2,2.3,4.2,2.6,6.5c0.4,4.1,0.1,8.3,0.1,13.9c3.1-3.3,5.4-5.6,7.5-8c0.9-1.1,1.6-2.4,3-2.8
				c1.2-0.4,2.7-0.7,3.5,0.2c1.3,1.3-0.4,2.1-1.1,2.9c-7.3,8.7-7.3,8.7-0.5,17.8C1676.4,382.1,1677.9,383.2,1678.3,385.5z"/>
			<path fill="#7B0708" d="M1633.6,372.4c0-0.9,0.1-1.8,0-2.6c-0.4-4.2,0.8-8.3,4.8-9.6c4.4-1.4,9.3-2.1,13.3,2c1,1,2.5,1.8,1,3.3
				c-1,0.9-2.4,1.7-3.7,0.3c-1.3-1.3-2.7-2.1-4.6-2.2c-3.8-0.2-6.1,0.9-5.8,5.3c0.2,2.3,0,4.6,0.1,6.8c0.2,5.8,4.4,8.1,9.2,4.7
				c1.8-1.3,3.5-2.3,4.9-0.3c1.3,2-1.1,3.1-2.3,4c-3.6,2.6-7.5,2.5-11.5,0.8c-3.8-1.6-5.4-4.7-5.3-8.8
				C1633.7,374.9,1633.6,373.6,1633.6,372.4z"/>
			<path fill="#08367A" d="M1463.2,373.4c0,2.6,0.1,5.3,0,7.9c-0.1,1.6-1.2,2.5-2.8,2.5c-1.5,0-2.4-0.7-2.3-2.2
				c0.2-5.8-0.8-11.6,0.9-17.3c0.3-1.1,0.7-2.2,1.9-2.3c1.6-0.2,2.1,1.4,2.2,2.5c0.3,3,0.3,6,0.5,8.9
				C1463.4,373.4,1463.3,373.4,1463.2,373.4z"/>
			<path fill="#08367A" d="M1608.1,368c0.4-7.2,5-10.6,11.8-8.5c1.2,0.4,1.8,0.9,1.8,2.2c0,1.6-0.8,2.1-2.3,2.2
				c-4.4,0.3-8.1,1.4-7.2,7.1c0.2,1.4-0.7,2.3-2.2,2.2c-1.6-0.1-2-1.2-1.9-2.6C1608.1,369.7,1608.1,368.9,1608.1,368z"/>
			<path fill="#08367A" d="M1469.4,380.4c-2.9-3.4-1.8-6.7-1.9-9.7c-0.2-3.7,0-7.4,0-11.1c0-1.1,0.3-2.2,1.8-2
				c1.1,0.1,1.4,1.1,1.2,2C1468.7,366.1,1470.3,372.8,1469.4,380.4z"/>
			<path fill="#08367A" d="M1621.5,366.5c-3,1.6-3.7,4.3-6.4,3.8c-0.3-0.1-0.6-2-0.3-2.8C1615.9,364.8,1618,365.9,1621.5,366.5z"/>
		</g>
	</g>
</g>
<g id="Layer_2">
	<path fill="#D51921" d="M1668.9,400.3h-20c-8.9,0-16.2-7.2-16.2-16.2v-33.9c0-8.9,7.2-16.2,16.2-16.2h20c8.9,0,16.2,7.2,16.2,16.2
		v33.9C1685,393.1,1677.8,400.3,1668.9,400.3z"/>
	<path fill="#D51921" d="M1587.8,381.8h-20c-8.9,0-16.2-7.2-16.2-16.2v-33.9c0-8.9,7.2-16.2,16.2-16.2h20c8.9,0,16.2,7.2,16.2,16.2
		v33.9C1604,374.6,1596.7,381.8,1587.8,381.8z"/>
	<path fill="#D51921" d="M1644.4,151c-0.1,1.9,2,2.7,3.3,1.4l17.2-17.4c5.2-5.2,4.2-13.9-1.9-16.8v0c-7.5-3.6-16.7,2-17.8,11
		L1644.4,151z"/>
	<path fill="#D51921" d="M1673.6,183.8c-1.4,1.2-0.6,3.2,1.3,3.2l24.5,0c7.3,0,13-6.5,11-12.6v0c-2.5-7.6-12.9-10-20.2-4.8
		L1673.6,183.8z"/>
	<path fill="#D51921" d="M1675.2,151.9c-1.7,2.4,0,4.2,2.7,2.9l36.1-16.8c10.8-5,17.5-16.5,12.8-22.4v0c-5.7-7.2-21.7-3-31.1,8.2
		L1675.2,151.9z"/>
</g>
</svg>
