<?xml version="1.0" encoding="utf-8"?>
<!-- Generator: Adobe Illustrator 18.0.0, SVG Export Plug-In . SVG Version: 6.00 Build 0)  -->
<!DOCTYPE svg PUBLIC "-//W3C//DTD SVG 1.1//EN" "http://www.w3.org/Graphics/SVG/1.1/DTD/svg11.dtd">
<svg version="1.1" xmlns="http://www.w3.org/2000/svg" xmlns:xlink="http://www.w3.org/1999/xlink" x="0px" y="0px"
	 viewBox="1044 0 1024 768" enable-background="new 1044 0 1024 768" xml:space="preserve">
<g id="Layer_1">
</g>
<g id="Layer_2">
	<g>
		<defs>
			<rect id="SVGID_1_" x="1253" y="291.1" width="585" height="164.9"/>
		</defs>
		<clipPath id="SVGID_2_">
			<use xlink:href="#SVGID_1_"  overflow="visible"/>
		</clipPath>
		<path clip-path="url(#SVGID_2_)" fill="#FF9191" d="M1280.5,349.2c-3,1-5.5,3.1-6.8,5.9c-8.9,18-38.4,84.5,20.4,74.7
			c67.8-11.3,128.9-58.8,264.5-27.1c135.6,31.6,196.7,56.5,262.2,45.2c0,0,0,0,0,0c13.6-15.8,22.6-61-13.6-74.6
			c-36.2,2.3-108.5,2.3-119.8-22.6c0,0,0,0,0,0c51.5,0,103-39.9,103.9-40.7c0,0,0,0,0,0l-20.3-13.5c0,0,0,0,0,0
			c-0.5,0.3-48.9,28.4-72.3,29.4c-29.9,1.3-92.7,24.9-178.6-2.3C1442.8,299.1,1307.1,340.6,1280.5,349.2"/>
		<path clip-path="url(#SVGID_2_)" fill="none" stroke="#872626" stroke-width="8" stroke-miterlimit="10" d="M1280.5,349.2
			c-3,1-5.5,3.1-6.8,5.9c-8.9,18-38.4,84.5,20.4,74.7c67.8-11.3,128.9-58.8,264.5-27.1c135.6,31.6,196.7,56.5,262.2,45.2
			c0,0,0,0,0,0c13.6-15.8,22.6-61-13.6-74.6c-36.2,2.3-108.5,2.3-119.8-22.6c0,0,0,0,0,0c51.5,0,103-39.9,103.9-40.7c0,0,0,0,0,0
			l-20.3-13.5c0,0,0,0,0,0c-0.5,0.3-48.9,28.4-72.3,29.4c-29.9,1.3-92.7,24.9-178.6-2.3C1442.8,299.1,1307.1,340.6,1280.5,349.2z"/>
		<path clip-path="url(#SVGID_2_)" fill="#FF9191" d="M1275.9,350.7c0,0,85.8,51.7-0.5,80.5"/>
		<path clip-path="url(#SVGID_2_)" fill="none" stroke="#872626" stroke-width="8" stroke-miterlimit="10" d="M1275.9,350.7
			c0,0,85.8,51.7-0.5,80.5"/>
		<path clip-path="url(#SVGID_2_)" fill="#FFEBBA" d="M1627.4,382.9c-37.6-67.4-97.8-52.3-141.4-28c-16.7,9.3-10.7,34.7,8.4,35.4
			c28.8,1.1,66.4,6.1,110.9,19.8C1621.5,415.1,1635.6,397.8,1627.4,382.9"/>
		<path clip-path="url(#SVGID_2_)" fill="none" stroke="#422400" stroke-width="6" stroke-miterlimit="10" d="M1627.4,382.9
			c-37.6-67.4-97.8-52.3-141.4-28c-16.7,9.3-10.7,34.7,8.4,35.4c28.8,1.1,66.4,6.1,110.9,19.8
			C1621.5,415.1,1635.6,397.8,1627.4,382.9z"/>
		<path clip-path="url(#SVGID_2_)" fill="#FF9191" d="M1807.2,373.3c0,0-63.6,48.9,13.6,74.6"/>
		<path clip-path="url(#SVGID_2_)" fill="none" stroke="#872626" stroke-width="8" stroke-miterlimit="10" d="M1807.2,373.3
			c0,0-63.6,48.9,13.6,74.6"/>
	</g>
</g>
</svg>
